
<svg width="28px" height="50px" viewBox="0 0 28 50" version="1.1" xmlns="http://www.w3.org/2000/svg" xmlns:xlink="http://www.w3.org/1999/xlink">
    <g id="Page-1" stroke="none" stroke-width="1" fill="none" fill-rule="evenodd">
        <path d="M10.8843537,0.680272109 L16.3265306,0.680272109 L16.3265306,0.518201011 L18.0272109,0 L18.0272109,0.92021051 L23.4693878,2.83971772 L23.4693878,2.63898663 L25.170068,2.38095238 L25.170068,12.5037744 L27.2108844,48.7122786 L17.3469388,50 L9.86394558,50 L-1.91846539e-13,48.7122786 L2.04081633,12.5037744 L2.04081633,2.38095238 L3.7414966,2.63898663 L3.7414966,2.83971772 L9.18367347,0.92021051 L9.18367347,0 L10.8843537,0.518201011 L10.8843537,0.680272109 Z M14.5900465,10.8532708 L14.5900465,6.55821763 C14.5900465,6.01443565 14.1492242,5.57361326 13.6054422,5.57361326 C13.0616602,5.57361326 12.6208378,6.01443565 12.6208378,6.55821763 L12.6208378,10.8532708 L14.5900465,10.8532708 Z M12.0957155,10.8532708 L12.0957155,6.55821763 C12.0957155,6.01443565 11.6548931,5.57361326 11.1111111,5.57361326 C10.5673291,5.57361326 10.1265067,6.01443565 10.1265067,6.55821763 L10.1265067,10.8532708 L12.0957155,10.8532708 Z M17.0843776,10.8532708 L17.0843776,6.55821763 C17.0843776,6.01443565 16.6435552,5.57361326 16.0997732,5.57361326 C15.5559913,5.57361326 15.1151689,6.01443565 15.1151689,6.55821763 L15.1151689,10.8532708 L17.0843776,10.8532708 Z M14.5900465,24.5031172 L14.5900465,20.208064 C14.5900465,19.664282 14.1492242,19.2234596 13.6054422,19.2234596 C13.0616602,19.2234596 12.6208378,19.664282 12.6208378,20.208064 L12.6208378,24.5031172 L14.5900465,24.5031172 Z M14.5900465,37.5091029 L14.5900465,33.2140497 C14.5900465,32.6702677 14.1492242,32.2294453 13.6054422,32.2294453 C13.0616602,32.2294453 12.6208378,32.6702677 12.6208378,33.2140497 L12.6208378,37.5091029 L14.5900465,37.5091029 Z M5.50843714,11.3035094 L6.91757222,11.1015412 L6.91757222,6.72749763 C6.91757222,6.35323153 6.60212659,6.14194491 6.21300468,6.25557575 C5.82388277,6.36920659 5.50843714,6.75214125 5.50843714,7.11088424 L5.50843714,11.3035094 Z M7.30188179,11.0418121 L8.71101687,10.8057672 L8.71101687,6.23435641 C8.71101687,5.84320253 8.39557124,5.61822567 8.00644933,5.73185651 C7.61732742,5.84548735 7.30188179,6.24415888 7.30188179,6.62231429 L7.30188179,11.0418121 Z M3.84309568,11.50768 L5.25223076,11.3373543 L5.25223076,7.18020502 C5.25223076,6.82449753 4.93678513,6.62825563 4.54766322,6.74188647 C4.15854131,6.85551732 3.84309568,7.22150682 3.84309568,7.5593469 L3.84309568,11.50768 Z M21.7024472,11.3035094 L21.7024472,7.11088424 C21.7024472,6.75214125 21.3870016,6.36920659 20.9978797,6.25557575 C20.6087578,6.14194491 20.2933121,6.35323153 20.2933121,6.72749763 L20.2933121,11.1015412 L21.7024472,11.3035094 Z M19.9090026,11.0418121 L19.9090026,6.62231429 C19.9090026,6.24415888 19.5935569,5.84548735 19.204435,5.73185651 C18.8153131,5.61822567 18.4998675,5.84320253 18.4998675,6.23435641 L18.4998675,10.8057672 L19.9090026,11.0418121 Z M23.3677887,11.50768 L23.3677887,7.5593469 C23.3677887,7.22150682 23.052343,6.85551732 22.6632211,6.74188647 C22.2740992,6.62825563 21.9586536,6.82449753 21.9586536,7.18020502 L21.9586536,11.3373543 L23.3677887,11.50768 Z" id="Combined-Shape-Copy-4" fill="#ffffff" transform="translate(13.605442, 25.000000) scale(-1, 1) translate(-13.605442, -25.000000) "></path>
    </g>
</svg>